<svg id="Component_101_1" data-name="Component 101 – 1" xmlns="http://www.w3.org/2000/svg" width="110.382" height="36.196" viewBox="0 0 110.382 36.196">
  <path id="Path_19" data-name="Path 19" d="M83.886,68.383H81.061l-1.884,5.081v0h6.615v0Z" transform="translate(-48.916 -54.169)"/>
  <path id="Path_20" data-name="Path 20" d="M98.322,68.318c-1.278,0-4.3.036-5.435.036V72.71H98.25c2.016,0,3.167-1.044,3.167-2.285C101.417,69.092,100.445,68.318,98.322,68.318Z" transform="translate(-45.68 -54.184)"/>
  <path id="Path_21" data-name="Path 21" d="M132.394,68.383h-2.825l-1.884,5.081v0H134.3v0Z" transform="translate(-37.468 -54.169)"/>
  <path id="Path_22" data-name="Path 22" d="M162.724,76.595a6.934,6.934,0,0,0-3.79-1.613,6.344,6.344,0,0,0,4.485-2.209,9.149,9.149,0,0,0,1.63-5.733V56.883H112.115c0,3.142-1.725,6.117-6.213,6.117V56.883H54.694v36.2H105.9V86.964c4.488,0,6.213,2.974,6.213,6.116h52.936V82.923A7.131,7.131,0,0,0,162.724,76.595ZM76.743,80.357a1.7,1.7,0,0,0,.613-.126l.053,1.44c-2.879.936-4.642-2.052-7.756-6.048L66.126,78.27V81.6H64.65V69.631h1.476v6.892l9.16-6.892h2.3l-6.713,5.056C73.306,78.377,75.269,80.357,76.743,80.357Zm17.834,1.237H93.6l-1.481-3.949h-7.7l-1.46,3.949H81.389l.091-.242.126-.335,4.211-11.385h4.859l4.269,11.385.142.384.075.193Zm13.353-4.729L101.9,76.9v4.7h-1.476V69.631h6.839c3.4,0,4.877,1.314,4.877,3.492A4.011,4.011,0,0,1,107.93,76.865ZM118.67,81.6h-1.476V69.631h1.476Zm19.357-11.725L133.687,81.6h-4.862l-4.272-11.4-.142-.381-.075-.193H125.9l3.937,10.5h2.828l3.886-10.5h1.567Zm16.508,11.72h-.98l-1.481-3.949h-7.7l-1.46,3.949h-1.566l.093-.242.125-.335,4.211-11.385h4.859l4.27,11.385.142.384.075.193Z" transform="translate(-54.694 -56.883)"/>
</svg>
