<svg width="67" height="67" viewBox="0 0 67 67" fill="none" xmlns="http://www.w3.org/2000/svg">
<path d="M60.9085 18.7753L51.5486 56.3537C50.8821 59.1589 48.3824 61.1029 45.4939 61.1029H8.99873C4.80485 61.1029 1.80529 56.9922 3.05513 52.965L14.748 15.4147C15.5534 12.804 17.9698 10.9984 20.6917 10.9984H54.8538C57.4923 10.9984 59.6865 12.6093 60.603 14.8312C61.1307 16.0255 61.2418 17.3866 60.9085 18.7753Z" stroke="#60975F" stroke-width="4.16611" stroke-miterlimit="10"/>
<path d="M44.4385 61.1029H57.7145C61.2974 61.1029 64.1025 58.0756 63.8526 54.4927L61.103 16.6644" stroke="#60975F" stroke-width="4.16611" stroke-miterlimit="10" stroke-linecap="round" stroke-linejoin="round"/>
<path d="M26.8853 17.7198L29.7738 5.72156" stroke="#60975F" stroke-width="4.16611" stroke-miterlimit="10" stroke-linecap="round" stroke-linejoin="round"/>
<path d="M45.4939 17.7477L48.1047 5.69385" stroke="#60975F" stroke-width="4.16611" stroke-miterlimit="10" stroke-linecap="round" stroke-linejoin="round"/>
<path d="M19.4048 29.0242H23.8484" stroke="#60975F" stroke-width="4.16611" stroke-miterlimit="10" stroke-linecap="round" stroke-linejoin="round"/>
<path d="M31.4961 29.0242H35.9397" stroke="#60975F" stroke-width="4.16611" stroke-miterlimit="10" stroke-linecap="round" stroke-linejoin="round"/>
<path d="M43.6612 29.0242H48.1047" stroke="#60975F" stroke-width="4.16611" stroke-miterlimit="10" stroke-linecap="round" stroke-linejoin="round"/>
<path d="M17.5832 37.9304H22.0268" stroke="#60975F" stroke-width="4.16611" stroke-miterlimit="10" stroke-linecap="round" stroke-linejoin="round"/>
<path d="M29.6745 37.9304H34.118" stroke="#60975F" stroke-width="4.16611" stroke-miterlimit="10" stroke-linecap="round" stroke-linejoin="round"/>
<path d="M41.8395 37.9304H46.2831" stroke="#60975F" stroke-width="4.16611" stroke-miterlimit="10" stroke-linecap="round" stroke-linejoin="round"/>
<path d="M14.9613 47.5787H19.4048" stroke="#60975F" stroke-width="4.16611" stroke-miterlimit="10" stroke-linecap="round" stroke-linejoin="round"/>
<path d="M27.0525 47.5787H31.4961" stroke="#60975F" stroke-width="4.16611" stroke-miterlimit="10" stroke-linecap="round" stroke-linejoin="round"/>
<path d="M39.2176 47.5787H43.6612" stroke="#60975F" stroke-width="4.16611" stroke-miterlimit="10" stroke-linecap="round" stroke-linejoin="round"/>
</svg>
